<?xml version="1.0" encoding="UTF-8" standalone="no"?>
<!-- Created with Inkscape (http://www.inkscape.org/) -->

<svg
   width="200"
   height="100"
   viewBox="0 0 52.916663 26.458334"
   version="1.1"
   id="svg5"
   inkscape:version="1.1 (c68e22c387, 2021-05-23)"
   sodipodi:docname="pyfi.svg"
   xmlns:inkscape="http://www.inkscape.org/namespaces/inkscape"
   xmlns:sodipodi="http://sodipodi.sourceforge.net/DTD/sodipodi-0.dtd"
   xmlns="http://www.w3.org/2000/svg"
   xmlns:svg="http://www.w3.org/2000/svg">
  <sodipodi:namedview
     id="namedview7"
     pagecolor="#ffffff"
     bordercolor="#666666"
     borderopacity="1.0"
     inkscape:pageshadow="2"
     inkscape:pageopacity="0.0"
     inkscape:pagecheckerboard="0"
     inkscape:document-units="mm"
     showgrid="false"
     inkscape:zoom="2.1266375"
     inkscape:cx="117.08625"
     inkscape:cy="121.08317"
     inkscape:window-width="1920"
     inkscape:window-height="1016"
     inkscape:window-x="0"
     inkscape:window-y="27"
     inkscape:window-maximized="1"
     inkscape:current-layer="layer1"
     units="px" />
  <defs
     id="defs2" />
  <g
     inkscape:label="Layer 1"
     inkscape:groupmode="layer"
     id="layer1">
    <path
       style="fill:#000000;stroke-width:0.144339"
       id="path1287"
       d="" />
    <path
       style="fill:#000000;stroke-width:0.144339"
       id="path1267"
       d="" />
    <path
       style="fill:#000000;stroke-width:0.144339"
       id="path1247"
       d="" />
    <path
       style="fill:#000000;stroke-width:0.144339"
       id="path1227"
       d="" />
    <path
       style="fill:#000000;stroke-width:0.144339"
       id="path1207"
       d="" />
    <path
       style="fill:#000000;stroke-width:0.144339"
       id="path1131"
       d="" />
    <path
       style="fill:#000000;stroke-width:0.264583"
       id="path1071"
       d="" />
    <path
       style="fill:#000000;stroke-width:0.264583"
       id="path1051"
       d="" />
    <path
       style="fill:#6b8791;fill-opacity:1;stroke-width:0.264583"
       d="m 42.544526,24.733465 c -1.12911,-0.33979 -2.85225,-1.72367 -3.6538,-2.93442 -1.02904,-1.55437 -1.39985,-3.11355 -1.24735,-5.24491 0.16086,-2.24826 1.03029,-4.18572 3.4876,-7.7718705 1.73017,-2.5249697 3.59638,-6.0284297 3.59638,-6.7515397 0,-0.76137 0.5858,-0.1115 1.15074,1.2766 0.32457,0.79748 1.70539,3.17371 3.0685,5.2804997 3.118,4.8191305 3.51288,5.7080005 3.66319,8.2458405 0.10537,1.77892 0.0346,2.20865 -0.58836,3.57187 -1.41728,3.10152 -3.68336,4.60203 -6.8972,4.56705 -1.01864,-0.0111 -2.17951,-0.11869 -2.5797,-0.23912 z m 3.15573,-2.01122 c 0.19715,-0.51377 -0.33396,-0.88981 -1.26451,-0.89528 -0.80163,-0.005 -2.22524,-0.90744 -2.92778,-1.85654 -0.26946,-0.36402 -0.58136,-1.19745 -0.69311,-1.85208 -0.1604,-0.93959 -0.31308,-1.19022 -0.72503,-1.19022 -0.41019,0 -0.53918,0.20832 -0.60286,0.97359 -0.14534,1.74676 1.41509,3.96759 3.3883,4.82229 1.24718,0.54021 2.61734,0.53936 2.82499,-0.002 z"
       id="path33" />
    <path
       style="fill:#6e8993;stroke:none;stroke-width:0.144339"
       d="M 6.2402248,6.087066 V 5.511747 H 2.4741352 v 17.978714 h 3.7660896 v -3.451913 c 1.588406,1.108927 4.0119862,0.918784 4.8722482,-1.006808 0.531497,-1.189759 0.487187,-2.750024 0.487187,-4.027232 0,-2.437352 0.459695,-5.434116 -0.369048,-7.766804 C 10.417296,4.948467 8.0351278,4.912855 6.2402248,6.087066 M 13.337855,5.511747 c 0.0299,3.586452 1.100857,7.384448 1.65482,10.931058 0.145849,0.933743 0.954791,3.125276 0.489316,3.981494 -0.297999,0.548135 -1.479262,0.333397 -1.999286,0.333397 v 2.301276 c 1.429665,0 4.298412,0.540512 5.471693,-0.388772 1.067976,-0.845719 1.026404,-3.398265 1.252804,-4.645268 0.752784,-4.14523 1.241796,-8.424609 2.256178,-12.513185 L 19.094468,5.659576 18.635874,8.244512 17.828193,16.298975 16.98372,8.388342 16.561918,5.659576 13.337855,5.511747 M 6.9701798,8.178696 c 0.956789,-0.172021 0.863159,1.058716 0.86339,1.647943 v 5.897018 c 0,0.592147 0.233034,1.949467 -0.594593,2.103221 -1.04606,0.194458 -0.998506,-1.170054 -0.998752,-1.815562 v -5.897018 c 2.46e-4,-0.628737 -0.120689,-1.782654 0.729955,-1.935602 z"
       id="path1091" />
    <path
       style="fill:#bdced6;fill-opacity:1;stroke-width:0.149929"
       d="m 24.362827,16.481216 v -6.072138 h -0.374824 c -0.373508,0 -0.374823,-0.005 -0.374823,-1.424329 0,-1.419331 0.0013,-1.424329 0.374823,-1.424329 0.363344,0 0.374824,-0.03146 0.374824,-1.027334 0,-1.171775 0.357354,-1.888268 1.126138,-2.257892 0.482494,-0.231979 1.777188,-0.286068 2.659577,-0.11111 l 0.562235,0.111478 v 1.117676 c 0,1.07891 -0.01244,1.117677 -0.358782,1.117677 -0.365616,0 -0.540794,0.246803 -0.540794,0.761909 0,0.219598 0.106346,0.287596 0.449788,0.287596 h 0.449788 v 1.424329 c 0,1.419331 -0.0013,1.424329 -0.374823,1.424329 h -0.374823 v 6.072138 6.072138 h -1.799152 -1.799152 z m 6.446961,-1.724188 V 6.960703 h 1.874117 1.874117 v 7.796325 7.796326 h -1.874117 -1.874117 z m 0.03142,-10.232677 0.04355,-1.236917 1.836635,-0.0421 1.836634,-0.0421 v 1.279014 1.279014 h -1.880189 -1.88018 z"
       id="path1319" />
  </g>
</svg>
