<?xml version="1.0" encoding="UTF-8" standalone="no"?>
<!-- Created with Inkscape (http://www.inkscape.org/) -->

<svg
   width="200"
   height="100"
   viewBox="0 0 52.916663 26.458334"
   version="1.1"
   id="svg5"
   inkscape:version="1.1.2 (0a00cf5339, 2022-02-04)"
   sodipodi:docname="pyfi.svg"
   xmlns:inkscape="http://www.inkscape.org/namespaces/inkscape"
   xmlns:sodipodi="http://sodipodi.sourceforge.net/DTD/sodipodi-0.dtd"
   xmlns="http://www.w3.org/2000/svg"
   xmlns:svg="http://www.w3.org/2000/svg">
  <sodipodi:namedview
     id="namedview7"
     pagecolor="#ffffff"
     bordercolor="#666666"
     borderopacity="1.0"
     inkscape:pageshadow="2"
     inkscape:pageopacity="0.0"
     inkscape:pagecheckerboard="0"
     inkscape:document-units="mm"
     showgrid="false"
     inkscape:zoom="2.1266375"
     inkscape:cx="24.216633"
     inkscape:cy="79.233062"
     inkscape:window-width="1657"
     inkscape:window-height="1082"
     inkscape:window-x="2660"
     inkscape:window-y="187"
     inkscape:window-maximized="0"
     inkscape:current-layer="layer1"
     units="px" />
  <defs
     id="defs2" />
  <g
     inkscape:label="Layer 1"
     inkscape:groupmode="layer"
     id="layer1">
    <path
       style="fill:#000000;stroke-width:0.144339"
       id="path1287"
       d="" />
    <path
       style="fill:#000000;stroke-width:0.144339"
       id="path1267"
       d="" />
    <path
       style="fill:#000000;stroke-width:0.144339"
       id="path1247"
       d="" />
    <path
       style="fill:#000000;stroke-width:0.144339"
       id="path1227"
       d="" />
    <path
       style="fill:#000000;stroke-width:0.144339"
       id="path1207"
       d="" />
    <path
       style="fill:#000000;stroke-width:0.144339"
       id="path1131"
       d="" />
    <path
       style="fill:#000000;stroke-width:0.264583"
       id="path1071"
       d="" />
    <path
       style="fill:#000000;stroke-width:0.264583"
       id="path1051"
       d="" />
    <text
       xml:space="preserve"
       style="font-size:46.2003px;line-height:1.25;font-family:sans-serif;letter-spacing:0px;word-spacing:0px;fill:#d0d9dc;fill-opacity:1;stroke-width:0.241;stroke-miterlimit:4;stroke-dasharray:none"
       x="19.885933"
       y="22.24745"
       id="text5363"
       transform="scale(0.94500728,1.0581929)"><tspan
         sodipodi:role="line"
         id="tspan5361"
         style="font-style:normal;font-variant:normal;font-weight:normal;font-stretch:normal;font-size:20.5334px;font-family:Anton;-inkscape-font-specification:'Anton, Normal';font-variant-ligatures:normal;font-variant-caps:normal;font-variant-numeric:normal;font-variant-east-asian:normal;fill:#d0d9dc;fill-opacity:1;stroke-width:0.241;stroke-miterlimit:4;stroke-dasharray:none"
         x="19.885933"
         y="22.24745">flow</tspan></text>
    <path
       style="fill:#6b8791;fill-opacity:1;stroke-width:0.264583"
       d="m 7.1203996,24.449029 c -1.12911,-0.33979 -2.85225,-1.72367 -3.6538,-2.93442 -1.02904,-1.55437 -1.39985,-3.11355 -1.24735,-5.24491 0.16086,-2.24826 1.03029,-4.18572 3.4876,-7.7718703 1.73017,-2.5249698 3.59638,-6.0284298 3.59638,-6.7515398 0,-0.76137005 0.5858,-0.1115 1.1507404,1.2766 0.32457,0.79748 1.70539,3.17371 3.0685,5.2804998 3.118,4.8191303 3.51288,5.7080003 3.66319,8.2458403 0.10537,1.77892 0.0346,2.20865 -0.58836,3.57187 -1.41728,3.10152 -3.68336,4.60203 -6.8972004,4.56705 -1.01864,-0.0111 -2.17951,-0.11869 -2.5797,-0.23912 z m 3.1557304,-2.01122 c 0.19715,-0.51377 -0.3339604,-0.88981 -1.2645104,-0.89528 -0.80163,-0.005 -2.22524,-0.90744 -2.92778,-1.85654 -0.26946,-0.36402 -0.58136,-1.19745 -0.69311,-1.85208 -0.1604,-0.93959 -0.31308,-1.19022 -0.72503,-1.19022 -0.41019,0 -0.53918,0.20832 -0.60286,0.97359 -0.14534,1.74676 1.41509,3.96759 3.3883,4.82229 1.24718,0.54021 2.6173404,0.53936 2.8249904,-0.002 z"
       id="path33" />
    <text
       xml:space="preserve"
       style="font-size:78.8101px;line-height:1.25;font-family:sans-serif;letter-spacing:0px;word-spacing:0px;fill:#6b8791;fill-opacity:1;stroke-width:0.410469"
       x="34.731174"
       y="5.6555591"
       id="text3756"
       transform="scale(0.87671592,1.1406203)"><tspan
         sodipodi:role="line"
         id="tspan3754"
         style="font-style:normal;font-variant:normal;font-weight:bold;font-stretch:normal;font-size:6.5675px;font-family:'Nimbus Sans';-inkscape-font-specification:'Nimbus Sans, Bold';font-variant-ligatures:normal;font-variant-caps:normal;font-variant-numeric:normal;font-variant-east-asian:normal;fill:#6b8791;fill-opacity:1;stroke-width:0.410469"
         x="34.731174"
         y="5.6555591">lambda</tspan></text>
  </g>
</svg>
